<?xml version="1.0" encoding="utf-8"?>
<!-- Generator: Adobe Illustrator 19.2.1, SVG Export Plug-In . SVG Version: 6.00 Build 0)  -->
<svg version="1.1" id="layer" xmlns="http://www.w3.org/2000/svg" xmlns:xlink="http://www.w3.org/1999/xlink" x="0px" y="0px"
	 viewBox="0 0 652 652" style="enable-background:new 0 0 652 652;" xml:space="preserve">
<g>
	<path d="M266.6,272c-26.2,0-47.6,21.3-47.6,47.6c0,26.2,21.3,47.6,47.6,47.6c26.2,0,47.6-21.3,47.6-47.6
		C314.2,293.4,292.8,272,266.6,272 M266.6,366.4c-25.8,0-46.8-21-46.8-46.8s21-46.8,46.8-46.8c25.8,0,46.8,21,46.8,46.8
		S292.4,366.4,266.6,366.4"/>
	<path d="M244.8,350.4c0,0-0.1,0.2-0.2,0.2c-0.1,0.1-0.2,0.2-0.2,0.2l-0.8,0.5l-1.3-1l0.3-0.9c0,0,0.1-0.2,0.1-0.2
		c0.1-0.1,0.2-0.2,0.2-0.2l-1.2-0.9c0,0,0,0.2,0,0.3c0,0.1-0.1,0.3-0.1,0.3l-1.6,4.9l0.8,0.6l4.6-2.6c0,0,0.2-0.1,0.3-0.1
		c0.1,0,0.3-0.1,0.3-0.1L244.8,350.4z M241.2,353l0.8-1.8l0.9,0.7L241.2,353z"/>
	<path d="M237.5,345.4c-0.8,0.4-0.8,1.5-0.6,2.1c0.2,0.8,0.2,1.2-0.4,1.4c-0.4,0.1-0.7-0.2-0.8-0.5c-0.1-0.3-0.2-0.7-0.2-0.8
		l-0.8,0.7c0.1,0.2,0.3,0.7,0.6,1c0.6,0.6,1.5,0.8,2.2,0.3c0.7-0.5,0.8-1.3,0.5-2.2c-0.1-0.4-0.3-1.1,0.2-1.3
		c0.5-0.2,0.8,0.3,0.9,0.7c0.1,0.3,0,0.7,0,0.8l1-1c-0.1-0.4-0.3-0.6-0.6-0.9C238.9,345.3,238.1,345,237.5,345.4"/>
	<path d="M234.2,346.8c-0.2-0.1-0.3-0.3-0.5-0.4l-0.2-0.2l3.1-2.4c0,0,0.2-0.1,0.4-0.2c0.1,0,0.3-0.1,0.3-0.1l-0.9-1.2
		c0,0-0.1,0.1-0.1,0.2c-0.1,0.2-0.3,0.4-0.3,0.4l-3.1,2.4l-0.2-0.2c-0.1-0.2-0.2-0.3-0.2-0.5c0-0.2-0.1-0.4-0.1-0.4l-1.1,0.3
		l2.4,3.1l1.2-0.4C234.6,347,234.4,346.9,234.2,346.8"/>
	<path d="M235.6,341.7c0.1,0,0.3,0.1,0.3,0.1l-0.9-1.4c0,0-0.1,0.1-0.2,0.2c-0.1,0-0.2,0.1-0.2,0.1l-1,0.2l-0.9-1.4l0.6-0.8
		c0,0,0.1-0.1,0.2-0.2c0.1,0,0.2-0.1,0.2-0.1l-0.8-1.3c0,0,0,0.2-0.1,0.3c-0.1,0.1-0.2,0.3-0.2,0.3l-3.2,4l0.5,0.9l5.2-0.8
		C235.3,341.7,235.5,341.7,235.6,341.7 M230.8,341.5l1.4-1.4l0.6,0.9L230.8,341.5z"/>
	<path d="M229,339c-0.2-0.2-0.3-0.3-0.4-0.5l-0.1-0.2l3.6-1.7c0,0,0.3-0.1,0.4-0.1c0.1,0,0.3,0,0.3,0l-0.6-1.4c0,0-0.1,0.1-0.1,0.2
		c-0.1,0.1-0.4,0.3-0.4,0.3l-3.6,1.7l-0.1-0.2c-0.1-0.2-0.1-0.3-0.1-0.6c0-0.2,0-0.4,0-0.4l-1.1,0l1.7,3.5l1.2-0.1
		C229.3,339.3,229.2,339.2,229,339"/>
	<path d="M227,334.9l3.8-1.3c0,0,0.3-0.1,0.4-0.1c0.1,0,0.3,0,0.3,0l-0.9-2.6l-1.2-0.1c0.2,0.2,0.4,0.4,0.6,0.7
		c0.2,0.3,0.3,0.5,0.4,0.8l0.1,0.2l-1.7,0.6c0-0.2-0.1-0.3,0-0.6c0-0.2,0-0.3,0.1-0.4l-1.1-0.2l0.5,1.4l-1.5,0.5
		c-0.1-0.3-0.1-0.4-0.1-0.7c0-0.2,0-0.3,0.1-0.5l-1.2-0.1l1,2.8c0,0,0.1-0.1,0.2-0.2C226.8,335.1,227,334.9,227,334.9"/>
	<path d="M229.6,327c-0.1-0.4-0.1-0.6-0.4-0.9l-0.3-0.4c0,0,0.1,0,0.2-0.1c0.1,0,0.2,0,0.2,0l-0.2-1.3c0,0-0.1,0.1-0.2,0.2
		c-0.2,0.1-0.5,0.2-0.5,0.2l-3.9,0.7c-0.1,0-0.3,0-0.4,0c-0.1,0-0.3-0.1-0.3-0.1l0.3,1.5c0,0,0.2-0.2,0.3-0.2
		c0.1-0.1,0.3-0.1,0.3-0.1l3.3-0.6l0.4,0.5c0.2,0.3,0.3,0.7,0.3,1c-0.1,0.3-0.4,0.5-0.8,0.6l-2.8,0.5c0,0-0.3,0-0.4,0
		c-0.1,0-0.3-0.1-0.3-0.1l0.3,1.5c0,0,0.2-0.2,0.3-0.2c0.1-0.1,0.3-0.1,0.3-0.1l2.8-0.5C229,328.7,229.7,327.9,229.6,327"/>
	<path d="M224,324.2c0.1-0.1,0.3-0.3,0.3-0.3l4-0.2c0,0,0.3,0,0.5,0.1c0.1,0,0.3,0.1,0.3,0.1l-0.1-1.5c0,0-0.1,0.1-0.2,0.1
		c-0.2,0.1-0.4,0.1-0.4,0.1l-2.6,0.1l2.6-2.1c0,0,0.2-0.2,0.4-0.3c0.1-0.1,0.2-0.1,0.2-0.1l-0.1-1.2c0,0-0.1,0.1-0.2,0.1
		c-0.2,0.1-0.5,0.1-0.5,0.1l-4,0.2c0,0-0.3,0-0.5-0.1c-0.1,0-0.2-0.1-0.2-0.1l0.1,1.5c0,0,0.1-0.1,0.2-0.1c0.2-0.1,0.5-0.1,0.5-0.1
		l2.7-0.1l-2.6,2.1c0,0-0.2,0.2-0.4,0.3c-0.1,0.1-0.3,0.1-0.3,0.1l0.1,1.5C223.7,324.6,223.9,324.3,224,324.2"/>
	<path d="M224.2,318.3l4,0.2c0,0,0.3,0,0.4,0.1c0.1,0,0.3,0.1,0.3,0.1l0.1-1.5c0,0-0.2,0.1-0.3,0.1c-0.2,0-0.4,0.1-0.4,0.1l-4-0.2
		c-0.1,0-0.2,0-0.4-0.1c-0.1,0-0.3-0.1-0.3-0.1l-0.1,1.5c0,0,0.2-0.1,0.3-0.1C224,318.4,224.2,318.3,224.2,318.3"/>
	<path d="M224.1,315.8l5.1-1.2l0.1-0.7l-4.5-2.7c0,0-0.2-0.2-0.3-0.3c-0.1-0.1-0.1-0.2-0.1-0.2l-0.2,1.7c0,0,0.1,0,0.2,0
		c0.1,0,0.3,0.1,0.3,0.1l2.9,1.6l-3.3,0.6c0,0-0.2,0-0.3-0.1c-0.1,0-0.2-0.1-0.2-0.1l-0.2,1.7c0,0,0.1-0.1,0.2-0.2
		C223.9,315.8,224.1,315.8,224.1,315.8"/>
	<path d="M225.3,310l3.8,1c0,0,0.2,0.1,0.4,0.2c0.1,0.1,0.2,0.2,0.2,0.2l0.7-2.7l-0.9-0.8c0.1,0.3,0.1,0.6,0.1,0.9
		c0,0.3-0.1,0.5-0.1,0.9l-0.1,0.3l-1.7-0.5c0.1-0.2,0.2-0.3,0.3-0.5c0.1-0.1,0.2-0.2,0.3-0.3l-0.8-0.8l-0.4,1.4l-1.6-0.4
		c0.1-0.3,0.2-0.4,0.3-0.6c0.1-0.2,0.2-0.3,0.4-0.4l-0.9-0.8l-0.8,2.9c0,0,0.2,0,0.3-0.1C225,310,225.3,310,225.3,310"/>
	<path d="M226.3,306.2l3.7,1.4c0,0,0.3,0.1,0.4,0.3c0.1,0.1,0.1,0.2,0.1,0.2l0.5-1.4c0,0-0.1,0-0.2,0c-0.2,0-0.5-0.1-0.5-0.1
		l-1.5-0.6l0-0.1c0.3,0,1-0.1,1.6-0.3c0.5-0.2,0.8-0.3,1.3-0.6l0.4-0.9c-0.6,0.2-0.9,0.4-1.5,0.5c-0.5,0.1-0.8,0.2-1.4,0.3
		c0,0-0.1-0.4-0.2-0.6c-0.4-0.9-1.4-1-2-0.6c-0.5,0.3-0.8,0.6-1.1,1.4l-0.4,1.1c0,0,0.2,0,0.3,0
		C226.1,306.1,226.3,306.2,226.3,306.2 M227.9,304.6c0.6,0.2,0.9,0.9,0.8,1.3l-2-0.8C227,304.7,227.4,304.4,227.9,304.6"/>
	<path d="M228.7,302c0.7,0.5,1.5,0.3,2.2-0.2c0.3-0.2,0.9-0.7,1.3-0.3c0.3,0.4,0,0.9-0.3,1.1c-0.3,0.2-0.7,0.3-0.8,0.3l1.2,0.6
		c0.3-0.2,0.5-0.5,0.6-0.8c0.3-0.7,0.3-1.5-0.3-2.1c-0.7-0.6-1.7-0.3-2.2,0.1c-0.7,0.5-1.1,0.6-1.4,0.1c-0.2-0.3,0-0.7,0.2-0.9
		c0.2-0.2,0.6-0.4,0.7-0.4l-1-0.5c-0.2,0.1-0.5,0.6-0.7,0.9C227.9,300.7,228,301.6,228.7,302"/>
	<path d="M230,298.1l3.4,2.1c0,0,0.2,0.2,0.3,0.3c0.1,0.1,0.2,0.3,0.2,0.3l0.8-1.3c0,0-0.2,0-0.3,0c-0.2,0-0.4-0.2-0.4-0.2l-3.4-2.1
		c-0.1,0-0.2-0.2-0.3-0.3c-0.1-0.1-0.2-0.3-0.2-0.3l-0.8,1.3c0,0,0.2,0,0.4,0C229.8,298,230,298.1,230,298.1"/>
	<path d="M231.4,296.1c0.1-0.2,0.1-0.4,0.3-0.6l0.2-0.2l3.2,2.3c0,0,0.2,0.2,0.3,0.3c0.1,0.1,0.2,0.3,0.2,0.3l0.9-1.2
		c0,0-0.1,0-0.2,0c-0.2,0-0.5-0.2-0.5-0.2l-3.2-2.3l0.2-0.2c0.1-0.2,0.3-0.3,0.4-0.4c0.1-0.1,0.4-0.2,0.4-0.2l-0.6-1l-2.3,3.2l0.7,1
		C231.3,296.6,231.4,296.4,231.4,296.1"/>
	<path d="M233.6,292.2c0.1,0,0.3,0.1,0.3,0.1l2.7,0.5l1.4,1.2c0,0,0.2,0.2,0.3,0.4c0,0.1,0.1,0.3,0.1,0.3l1-1.1c0,0-0.1,0-0.2-0.1
		c-0.2-0.1-0.4-0.3-0.4-0.3l-1.4-1.3l-0.8-2.5c0,0-0.1-0.3-0.1-0.4c0-0.1,0-0.2,0-0.2l-1.1,1.2c0,0,0.1,0,0.1,0
		c0.1,0.1,0.3,0.3,0.3,0.3l0.6,1.3l-1.5-0.3c0,0-0.2-0.1-0.3-0.2c0-0.1-0.1-0.2-0.1-0.2l-1.1,1.2
		C233.3,292.2,233.5,292.1,233.6,292.2"/>
	<path d="M243.7,289.8c1.2-0.9,1.5-2.7,0.6-3.9c-0.9-1.2-2.5-1.5-3.8-0.5c-1.2,0.9-1.4,2.5-0.6,3.7
		C240.7,290.3,242.4,290.6,243.7,289.8 M240.1,286.7c0.3-0.9,1.7-1.1,2.5-0.7c0.7,0.3,1.9,1.4,1.5,2.2c-0.3,0.6-1.2,1.1-2.3,0.8
		C240.7,288.8,239.8,287.5,240.1,286.7"/>
	<path d="M243.8,283.9l2,3.4c0,0,0.1,0.2,0.1,0.4c0,0.1,0,0.4,0,0.4l1.3-0.8c0,0-0.2-0.1-0.3-0.2c-0.1-0.1-0.2-0.2-0.3-0.3l-0.9-1.5
		c0.2-0.1,0.3-0.1,0.5-0.2c0.2,0,0.3-0.1,0.5-0.1l0-1.1l-1.4,0.8l-0.8-1.4c0.2-0.2,0.4-0.2,0.7-0.3c0.2,0,0.4-0.1,0.6,0l-0.1-1.2
		l-2.6,1.6c0,0,0.2,0.1,0.3,0.2C243.6,283.6,243.8,283.9,243.8,283.9"/>
	<path d="M249,281l1.5,3.7c0,0,0.1,0.3,0.1,0.4c0,0.1,0,0.3,0,0.3l1.4-0.6c0,0-0.1-0.1-0.2-0.2c-0.1-0.1-0.3-0.4-0.3-0.4l-1-2.5
		l2.9,1.8c0,0,0.2,0.1,0.4,0.3c0.1,0.1,0.2,0.2,0.2,0.2l1.1-0.4c0,0-0.1-0.1-0.2-0.1c-0.1-0.1-0.3-0.4-0.3-0.4l-1.5-3.7
		c0,0-0.1-0.3-0.1-0.5c0-0.1,0-0.2,0-0.2l-1.4,0.6c0,0,0.1,0.1,0.2,0.2c0.1,0.1,0.3,0.4,0.3,0.4l1,2.6l-2.9-1.8c0,0-0.2-0.1-0.4-0.3
		c-0.1-0.1-0.2-0.3-0.2-0.3l-1.4,0.6c0,0,0.3,0.1,0.4,0.2C248.7,280.8,249,281,249,281"/>
	<path d="M254.3,279l1,3.8c0,0,0.1,0.3,0,0.4c0,0.1-0.1,0.3-0.1,0.3l2.7-0.7l0.2-1.2c-0.3,0.2-0.5,0.3-0.8,0.5
		c-0.3,0.1-0.5,0.2-0.8,0.3l-0.3,0.1l-0.5-1.7c0.2,0,0.3,0,0.6,0c0.2,0,0.3,0.1,0.4,0.1l0.3-1.1l-1.4,0.4l-0.4-1.6
		c0.3-0.1,0.4-0.1,0.7-0.1c0.2,0,0.3,0.1,0.5,0.1l0.2-1.2l-2.9,0.8c0,0,0.1,0.1,0.2,0.3C254.2,278.8,254.3,279,254.3,279"/>
	<path d="M258.3,277.7l1.9,4.7l0.9-0.1l0.5-2.6l1.1,2.4l0.8-0.1l0.7-5c0,0,0.1-0.3,0.2-0.4c0-0.1,0.1-0.1,0.1-0.1l-1.7,0.2
		c0,0,0.1,0.1,0.1,0.2c0,0.1,0.1,0.3,0.1,0.3l-0.3,2.9l-1.5-3.2l-0.7,3.5l-1-2.7c0,0,0-0.2,0-0.4c0-0.1,0-0.2,0-0.2l-1.7,0.2
		c0,0,0.1,0.1,0.2,0.2C258.2,277.5,258.3,277.7,258.3,277.7"/>
	<path d="M267.4,277l1.3,2.4l-0.1,1.8c0,0-0.1,0.3-0.1,0.5c0,0.1-0.1,0.2-0.1,0.2l1.5,0.1c0,0-0.1-0.1-0.1-0.2
		c-0.1-0.2-0.1-0.5-0.1-0.5l0.1-1.8l1.5-2.2c0,0,0.1-0.2,0.3-0.4c0.1-0.1,0.2-0.1,0.2-0.1l-1.7-0.1c0,0,0.1,0.1,0.1,0.1
		c0,0.1,0,0.4,0,0.4l-0.6,1.3l-0.7-1.4c0,0,0-0.2,0-0.4c0-0.1,0.1-0.1,0.1-0.1l-1.7-0.1c0,0,0.1,0.1,0.2,0.2
		C267.3,276.8,267.4,277,267.4,277"/>
	<path d="M273.5,282.6c1.5,0.3,3-0.7,3.2-2.2c0.3-1.5-0.5-2.9-2.2-3.2c-1.4-0.3-2.8,0.6-3.1,2C271.1,280.7,272,282.3,273.5,282.6
		 M273.3,277.9c0.8-0.4,1.9,0.5,2.2,1.3c0.2,0.7,0.2,2.3-0.6,2.6c-0.6,0.2-1.6-0.1-2.1-1.1C272.2,279.7,272.6,278.2,273.3,277.9"/>
	<path d="M276.4,283.1l1.4,0.5c0,0,0-0.1,0-0.2c0-0.2,0.1-0.5,0.1-0.5l0.5-1.6l0.1,0c0,0.3,0.2,1,0.4,1.5c0.2,0.5,0.3,0.8,0.6,1.3
		l1,0.3c-0.3-0.6-0.4-0.9-0.6-1.5c-0.2-0.5-0.2-0.8-0.3-1.3c0,0,0.4-0.1,0.6-0.2c0.9-0.4,0.9-1.4,0.5-2c-0.4-0.5-0.7-0.8-1.5-1
		l-1.1-0.4c0,0,0,0.2,0,0.3c0,0.2-0.1,0.5-0.1,0.5l-1.2,3.8c0,0-0.1,0.3-0.3,0.5C276.5,283,276.4,283.1,276.4,283.1 M279.1,279.1
		c0.5,0.2,0.7,0.7,0.6,1.2c-0.2,0.6-0.8,0.9-1.3,0.8L279.1,279.1z"/>
	<path d="M280.6,284.5l1.4,0.6c0,0,0-0.2,0-0.3c0-0.2,0.1-0.4,0.1-0.4l0.9-1.9l0.1,0.1l0.4,2.7c0,0,0,0.2,0,0.3
		c0,0.1-0.1,0.2-0.1,0.2l1.6,0.7c0,0-0.1-0.2-0.1-0.3c-0.1-0.2-0.1-0.4-0.1-0.4l-0.6-3l2.2-1.1c0,0,0.3-0.2,0.6-0.2
		c0.1,0,0.2,0,0.2,0l-1.6-0.7c0,0-0.1,0.1-0.1,0.1c-0.1,0.1-0.3,0.2-0.3,0.2l-1.9,1.1l-0.1-0.1l0.7-1.5c0,0,0.1-0.3,0.3-0.4
		c0.1-0.1,0.2-0.2,0.2-0.2l-1.4-0.6c0,0,0,0.2,0,0.4c0,0.1-0.1,0.4-0.1,0.4l-1.7,3.6c0,0-0.1,0.2-0.2,0.3
		C280.8,284.4,280.6,284.5,280.6,284.5"/>
	<path d="M288.5,289.1c0.5,0.4,1.4,0.6,1.5,0.6l0.9-1c-0.1,0-1.1,0.2-1.7-0.2c-0.8-0.5-1-1.8-0.4-2.7c0.6-0.8,1.7-1.2,2.5-0.6
		c0.6,0.4,0.8,1.1,0.8,1.4l0.7-1.1c-0.1-0.1-0.5-0.6-0.9-0.9c-1.6-1.1-3.3-0.6-4.1,0.6C287,286.5,287.1,288,288.5,289.1"/>
	<path d="M292.1,291.9c1.1,1.1,2.9,1,3.9-0.1c1-1.1,1.1-2.7-0.1-3.8c-1.1-1-2.7-1-3.7,0C291.1,289.1,291,290.9,292.1,291.9
		 M292.5,289.9c0.1-1.1,1.2-2.2,2-2.1c0.9,0.1,1.4,1.5,1.2,2.3c-0.2,0.7-1,2.1-1.9,1.9C293,291.9,292.4,291.1,292.5,289.9"/>
	<path d="M294.9,294.2c-0.1,0-0.3,0.1-0.3,0.1l0.9,1.2c0,0,0-0.1,0.1-0.2c0.1-0.2,0.3-0.4,0.3-0.4l2.2-1.7l-0.5,2.3l2.3,0.1
		l-2.2,1.7c0,0-0.2,0.1-0.4,0.2c-0.1,0-0.3,0.1-0.3,0.1l0.9,1.2c0,0,0.1-0.1,0.1-0.2c0.1-0.2,0.3-0.4,0.3-0.4l3.1-2.4
		c0,0,0.5,0,0.7,0c0.1,0,0.2,0,0.2,0l-0.9-1.2c0,0-0.1,0-0.2,0.1c-0.2,0.1-0.6,0.1-0.6,0.1l-2-0.1l0.4-1.9c0,0,0.1-0.3,0.2-0.5
		c0.1-0.1,0.1-0.2,0.1-0.2l-0.9-1.2c0,0,0,0.3-0.1,0.4c0,0.2-0.1,0.5-0.1,0.5l-3.1,2.4C295.3,294,295.1,294.2,294.9,294.2"/>
	<path d="M299,299.7c-0.1,0-0.3,0-0.3,0l0.7,1.3c0,0,0.1-0.1,0.1-0.2c0.1-0.2,0.4-0.4,0.4-0.4l2.4-1.3l-0.9,2.1l2.3,0.5l-2.4,1.3
		c0,0-0.3,0.1-0.4,0.1c-0.1,0-0.3,0-0.3,0l0.7,1.3c0,0,0.1-0.1,0.1-0.2c0.1-0.1,0.4-0.3,0.4-0.3l3.5-1.8c0,0,0.5,0,0.7,0.1
		c0.1,0,0.2,0.1,0.2,0.1l-0.7-1.3c0,0-0.1,0-0.2,0c-0.2,0-0.6,0-0.6,0l-2-0.4l0.8-1.8c0,0,0.1-0.3,0.3-0.5c0.1-0.1,0.2-0.2,0.2-0.2
		l-0.7-1.3c0,0-0.1,0.2-0.1,0.4c-0.1,0.2-0.2,0.4-0.2,0.4l-3.5,1.8C299.5,299.6,299.2,299.7,299,299.7"/>
	<path d="M303.4,305c-0.9,0.3-1.5,1.2-1.2,2.1c0.1,0.4,0.2,0.6,0.5,0.9l0.4,0.4c0,0-0.1,0.1-0.2,0.1c-0.1,0-0.2,0.1-0.2,0.1l0.4,1.2
		c0,0,0.1-0.1,0.2-0.2c0.1-0.1,0.4-0.2,0.4-0.2l3.8-1.3c0.1,0,0.3-0.1,0.4-0.1c0.1,0,0.3,0,0.3,0l-0.5-1.4c0,0-0.1,0.2-0.3,0.3
		c-0.1,0.1-0.3,0.2-0.3,0.2l-3.2,1.1l-0.4-0.4c-0.3-0.3-0.4-0.6-0.4-0.9c0-0.3,0.3-0.6,0.7-0.7l2.7-0.9c0,0,0.3-0.1,0.4-0.1
		c0.1,0,0.3,0,0.3,0l-0.5-1.4c0,0-0.2,0.2-0.3,0.3c-0.1,0.1-0.3,0.2-0.3,0.2L303.4,305z"/>
	<path d="M307.9,309.7l-3.9,0.7c0,0-0.3,0-0.5,0c-0.1,0-0.3-0.1-0.3-0.1l0.3,1.5c0,0,0.1-0.1,0.2-0.2c0.2-0.1,0.4-0.2,0.4-0.2
		l2.6-0.5l-2.3,2.5c0,0-0.2,0.2-0.3,0.3c-0.1,0.1-0.2,0.1-0.2,0.1l0.2,1.1c0,0,0.1-0.1,0.2-0.1c0.2-0.1,0.5-0.2,0.5-0.2l3.9-0.7
		c0,0,0.3,0,0.5,0c0.1,0,0.2,0.1,0.2,0.1l-0.3-1.5c0,0-0.1,0.1-0.2,0.2c-0.2,0.1-0.4,0.2-0.4,0.2l-2.7,0.5l2.3-2.5
		c0,0,0.2-0.2,0.3-0.3c0.1-0.1,0.3-0.2,0.3-0.2l-0.3-1.5c0,0-0.2,0.2-0.3,0.4C308.1,309.5,307.9,309.7,307.9,309.7"/>
	<path d="M308.8,315.3l-4,0.4c0,0-0.3,0-0.4,0c-0.1,0-0.3-0.1-0.3-0.1l0.1,1.5c0,0,0.2-0.1,0.3-0.2c0.1-0.1,0.4-0.1,0.4-0.1l3.9-0.4
		c0.1,0,0.2,0,0.4,0c0.1,0,0.3,0.1,0.3,0.1l-0.1-1.5c0,0-0.2,0.1-0.3,0.2C309,315.2,308.8,315.3,308.8,315.3"/>
	<path d="M308.8,317.7c0.1,0.2,0.1,0.4,0.1,0.7l0,0.3l-4,0.1c0,0-0.3,0-0.4-0.1c-0.1,0-0.3-0.1-0.3-0.1l0,1.5c0,0,0.1-0.1,0.2-0.1
		c0.2-0.1,0.5-0.1,0.5-0.1l4-0.1l0,0.3c0,0.2-0.1,0.4-0.1,0.6c-0.1,0.2-0.2,0.4-0.2,0.4l1,0.4l-0.1-3.9l-1.2-0.4
		C308.6,317.3,308.7,317.4,308.8,317.7"/>
	<path d="M309.1,322.4l-2.5,1.2l-1.8-0.2c0,0-0.3-0.1-0.4-0.2c-0.1,0-0.2-0.2-0.2-0.2l-0.2,1.5c0,0,0.1-0.1,0.2-0.1
		c0.2-0.1,0.5-0.1,0.5-0.1l1.8,0.2l2.2,1.6c0,0,0.2,0.1,0.4,0.3c0.1,0.1,0.1,0.2,0.1,0.2l0.2-1.7c0,0-0.1,0-0.1,0.1
		c-0.1,0-0.4,0-0.4,0l-1.2-0.7l1.4-0.6c0,0,0.2,0,0.4,0c0.1,0,0.1,0.1,0.1,0.1l0.2-1.7c0,0-0.1,0.1-0.2,0.2
		C309.3,322.3,309.1,322.4,309.1,322.4"/>
	<path d="M306.1,328.3c-1.5-0.4-2.9,0.2-3.4,1.9c-0.2,0.6-0.1,1.5-0.1,1.6l1.2,0.5c-0.1-0.1-0.6-0.9-0.4-1.7c0.2-1,1.4-1.5,2.4-1.2
		c1,0.3,1.7,1.2,1.4,2.2c-0.2,0.7-0.8,1.1-1.1,1.2l1.3,0.3c0.1-0.1,0.4-0.7,0.5-1.1C308.5,330.2,307.5,328.7,306.1,328.3"/>
	<path d="M304.9,333.4c-1.4-0.7-3.1-0.1-3.7,1.2c-0.6,1.4,0,3.1,1.4,3.7c1.4,0.6,2.9,0.1,3.6-1.4
		C306.7,335.6,306.2,334.1,304.9,333.4 M303.9,337.4c-0.7,0.1-2.3-0.3-2.4-1.2c-0.1-0.7,0.5-1.6,1.6-1.8c1.1-0.3,2.5,0.5,2.6,1.2
		C305.9,336.5,304.8,337.3,303.9,337.4"/>
	<path d="M304.3,340.2c-0.2,0-0.5-0.2-0.5-0.2l-3.4-2c0,0-0.3-0.2-0.4-0.3c0-0.1-0.1-0.2-0.1-0.2l-1.3,2.3c0,0,0.3,0.3,0.4,0.5
		c0.2,0.2,0.4,0.6,0.4,0.6c0-0.3,0-0.5,0.1-0.9c0.1-0.3,0.1-0.5,0.3-0.8l0.1-0.1l3.4,2c0,0,0.3,0.2,0.4,0.3c0.1,0.1,0.1,0.2,0.1,0.2
		l0.8-1.3C304.5,340.2,304.3,340.3,304.3,340.2"/>
	<path d="M301.8,343.3l-3.2-2.3c0,0-0.2-0.2-0.3-0.4c0-0.1-0.1-0.2-0.1-0.2l-1.6,2.1c0,0,0.3,0.3,0.4,0.5c0.2,0.2,0.4,0.6,0.4,0.6
		c0-0.3,0.1-0.5,0.2-0.8c0.1-0.3,0.2-0.5,0.3-0.8l0.1-0.1l3.2,2.3c0,0,0.3,0.2,0.4,0.4c0,0.1,0.1,0.2,0.1,0.2l0.9-1.2
		c0,0-0.1,0-0.2,0C302,343.5,301.8,343.3,301.8,343.3"/>
	<path d="M299.5,346.4l-3-2.6c0,0-0.2-0.2-0.3-0.3c-0.1-0.1-0.1-0.3-0.1-0.3l-1.8,2.1l0.5,1.1c0.1-0.3,0.2-0.5,0.4-0.9
		c0.2-0.3,0.3-0.5,0.5-0.7l0.2-0.2l1.3,1.2c-0.2,0.1-0.3,0.2-0.5,0.3c-0.2,0.1-0.3,0.1-0.4,0.2l0.4,1.1l1-1.1l1.2,1.1
		c-0.2,0.2-0.3,0.3-0.5,0.4c-0.2,0.1-0.3,0.1-0.5,0.2l0.5,1.1l1.9-2.2c0,0-0.2,0-0.3-0.1C299.7,346.6,299.5,346.4,299.5,346.4"/>
	<path d="M291.7,347.7c-1,0.8-1.2,1.5-1.3,1.6c0,0,0.2,0.1,0.3,0.2c0.1,0.1,0.3,0.3,0.3,0.3l0.7,0.7c0,0,0.1,0.2,0.2,0.3
		c0.1,0.1,0.1,0.4,0.1,0.4l1.1-1c0,0-0.2-0.1-0.3-0.1c-0.1-0.1-0.3-0.2-0.3-0.2l-0.8-0.9c0,0,0.1-0.2,0.4-0.4
		c0.8-0.7,1.8-0.6,2.7,0.3c0.7,0.7,0.8,1.8,0,2.5c-0.6,0.5-1.2,0.5-1.5,0.5l0.9,0.9c0.2-0.1,0.7-0.4,1-0.8c1.4-1.3,1.3-3,0.3-4
		C294.5,346.8,292.9,346.7,291.7,347.7"/>
	<path d="M292.7,353.1l-2.3-3.2c0,0-0.1-0.2-0.2-0.4c0-0.1-0.1-0.3-0.1-0.3l-2.3,1.7l0.2,1.2c0.2-0.3,0.3-0.5,0.5-0.8
		c0.2-0.2,0.4-0.4,0.6-0.6l0.2-0.2l1,1.4c-0.2,0.1-0.3,0.2-0.5,0.2c-0.2,0-0.3,0.1-0.4,0.1l0.1,1.1l1.2-0.9l1,1.3
		c-0.2,0.2-0.4,0.2-0.6,0.3c-0.2,0.1-0.3,0.1-0.5,0.1l0.2,1.2l2.4-1.7c0,0-0.2-0.1-0.3-0.2C292.9,353.3,292.7,353.1,292.7,353.1"/>
	<path d="M257.8,355.3l-2.5,1.1l0.8,0.2l-1.1,3.9c0,0.1-0.1,0.2-0.1,0.2c-0.1,0.1-0.2,0.2-0.2,0.2l1.8,0.5c0-0.2-0.1-0.3-0.1-0.5
		c0-0.2,0-0.3,0-0.5L257.8,355.3z"/>
	<path d="M262.3,356.2c-1.3-0.1-1.9,0.6-2,1.6c-0.1,0.5,0.3,1.5,1,1.7c0.6,0.2,0.3,0.3,0.3,0.3l-1,1.4c0,0.1-0.2,0.2-0.3,0.4
		c-0.2,0.2-0.3,0.3-0.5,0.5l2,0.2c0-0.2,0-0.3,0.1-0.5c0.1-0.2,0.2-0.3,0.3-0.4l0.7-1.1c0.4-0.5,1.1-1.4,1.2-2.1
		C264.2,357.3,263.5,356.3,262.3,356.2 M262.1,358.8c-0.9-0.1-0.9-1.7,0.2-1.6C263.2,357.4,262.7,358.9,262.1,358.8"/>
	<path d="M271.2,359.1c-0.2,0.1-0.3,0.2-0.6,0.2c-0.3,0.1-0.3-0.1-0.3-0.1l-0.2-2.8l-1.3,0.1c-0.1,0.2-0.1,0.3-1.1,1.6
		c-1,1.4-0.8,1-1.1,1.3c0,0.2,0.1,0.2,0.1,0.4c0,0.2,0.1,0.3,0.1,0.5l2.1-0.1l0.1,1.4c0,0.2,0,0.3-0.1,0.4c-0.1,0.2-0.1,0.3-0.3,0.5
		l2.1-0.1c-0.1-0.2-0.2-0.3-0.3-0.5c-0.1-0.2-0.1-0.3-0.1-0.4l-0.1-1.3c0.1-0.1,0.1-0.1,0.2-0.1c0.3,0,0.5,0.1,0.6,0.2l0.1,0.1
		L271.2,359.1L271.2,359.1z M268.1,359.4l0.9-1.3l0.1,1.2L268.1,359.4z"/>
	<path d="M276.5,357.7c-0.6,0.1-0.4-0.1-0.5-0.1l0.5-1.5c0-0.1,0.1-0.3,0.2-0.5c0.1-0.2,0.2-0.4,0.3-0.6l-2,0.5c0,0.2,0,0.3,0,0.5
		c0,0.2,0,0.3-0.1,0.5l-0.4,1.2c-0.2,0.6-0.5,1.5-0.3,2.4c0.2,1,1.2,1.7,2.3,1.3c1.2-0.3,1.9-1.2,1.6-2.5
		C278.1,358.1,277.4,357.6,276.5,357.7 M276.6,360.5c-0.9,0.3-1.6-1.4-0.5-1.8C276.9,358.4,277.7,360.2,276.6,360.5"/>
	<path d="M247.2,354.3c-0.8,0-1.4,0.6-1.4,1.4c0,0.8,0.6,1.4,1.4,1.4c0.8,0,1.4-0.6,1.4-1.4C248.6,354.9,248,354.3,247.2,354.3"/>
	<path d="M285.9,354.3c-0.8,0-1.4,0.6-1.4,1.4c0,0.8,0.6,1.4,1.4,1.4c0.8,0,1.4-0.6,1.4-1.4C287.3,354.9,286.7,354.3,285.9,354.3"/>
	<path d="M266.6,269.7c-14.4,0-27.3,6.1-36.5,15.9c-0.5-0.7-1-1.4-1.4-1.9c-1.9-2.5-3.6-3.6-5.8-3.1c-3.2,0.7-4.5,6.7-0.5,14.5
		l0.1,0.2l-0.2,0c-0.5,0-0.9,0.1-1.4,0.3c-1.9,0.8-2.5,3.5-1.3,7c-1.9,5.3-3,11.1-3,17c0,9.7,2.8,18.7,7.6,26.4
		c0.4,6.5,3.1,12.3,6,16.2c6.1,8,13.1,9.6,13.1,9.6s-2.1-4.7-2.6-9.5c7.6,4.6,16.5,7.3,25.9,7.3c27.5,0,49.9-22.4,49.9-49.9
		C316.5,292.1,294.1,269.7,266.6,269.7 M223.9,282.8c1.2-0.3,2.4,0.2,4.2,2.5c0.3,0.4,0.6,0.8,1,1.3c-1.9,2.2-3.7,4.6-5.2,7.1
		C220.8,286.9,222.9,283,223.9,282.8 M231.6,361.1c-1.7-2.3-3.3-5.3-4.3-8.6c1.7,1.9,3.7,3.3,5.8,4.1c1.9,1.7,3.9,3.2,5.9,4.6
		c0,0.3,0,0.7,0.1,1C236.8,362.9,234.1,362.5,231.6,361.1 M266.6,368.8c-27.1,0-49.2-22-49.2-49.1c0-27.1,22.1-49.2,49.2-49.2
		c27.1,0,49.1,22,49.1,49.2C315.7,346.7,293.7,368.8,266.6,368.8"/>
	<path d="M256.9,319.8c0.3,0.4,0.8,0.5,1.3,0.4c0,1.7,0.2,4.5,0.2,5.3c0.1,3.5,2.8,6.6,12,6.2c7.1-0.2,13.2-2.5,13.2-2.5
		s-6.6-0.3-11.9-4.4c-4-3.1-5.9-5-8.5-4.9c-1.5,0.1-2.5,0.4-3.9-0.6c0.2-0.5,0.1-1-0.2-1.4c-0.5-0.6-0.3,0.6-0.9,1.1
		C257.5,319.6,256.4,319.2,256.9,319.8 M260.8,325.4c0.7,0.4,3.3,2,6.6,2.7c2.4,0.5,3.7,0.5,3.7,0.5s-2.1-0.3-2.9-0.8
		c-0.5-0.3-0.5-0.8-0.5-0.8s-0.7,0.3-2.3-0.3c-1.4-0.5-1.8-1.3-1.8-1.3s-0.9,0.2-1.8-0.2c-2.4-1.2-0.4-3.7,1-3.7
		c1.7,0,1.5,1.5,1.5,1.5s1.2-0.7,2.4-0.1c1.9,1,1.9,2.6,1.9,2.6s0.7-0.6,2.4,0.4c1.6,0.9,2.3,2.3,2.3,2.3s1.6-0.3,2.5,0
		c0.9,0.3,1.1,1.9-0.8,2c-1.5,0.1-1.9-0.8-1.9-0.8s-1,1.1-3.2,1.1c-2-0.1-2.2-1-2.2-1s-0.9,1-2.8,0.6c-2.1-0.5-2.3-1.8-2.3-1.8
		s-1.5,0.4-2.4-1C259.5,326.5,260.2,325,260.8,325.4"/>
	<path d="M300,319.6c0-4.2-0.8-8.3-2.3-12l3.3-0.9l0.3-1.9l-6.1-2.6c-5.9-9.6-16.5-16-28.5-16c-18.4,0-33.4,15-33.4,33.4
		c0,8.8,3.4,16.8,9,22.8c1.6,3.7,3.9,5.8,4.7,5.8c0.8,0,1.6-0.1,2.2-0.1c5.1,3.2,11.1,5,17.5,5C285,353.1,300,338.1,300,319.6
		 M300.5,305.3l-0.1,0.8l-21.2,5.6l-14.2-6.9c0-0.2,0-0.3,0-0.4c1.1-0.4,5.6-1,11.3-1.3c0.5,0.3,1.3,0.5,2.2,0.6
		c0.4,0,0.7,0.1,1.1,0.1c1.8,0,3-0.6,3-1.6c0-0.6-0.4-1.6-3.4-1.7c-0.1,0-0.2,0-0.3,0c-1,0-2.2,0.1-2.9,0.6
		c-12.5,0.7-12.7,1.9-12.8,2.6c0,0.1,0,0.1,0,0.2l-3.9-1.9l-0.3-1.1l19.9-4.9L300.5,305.3z M257.4,339.3c0.8-0.3,1.7-0.6,2.6-1
		c2-0.9,3.5-1.9,4.7-3c1.4,0.2,2.8,0.2,4.1,0.2c0.8,0,1.5-0.1,2.3-0.2c0,0.6,0,1.1-0.1,1.7c-0.8,3.5-5,3.9-6.3,4.6
		c-1.4,0.7-1.9,2.9-1.6,4.2c0.3,1.4,1.3,1.2,1.3,1.2s0.1,0.5,0.6,0.7c0.4,0.1,1.6,0.4,2.9,1.2c1.3,0.8,2.7-0.4,2.7-0.4s1.1,0,2.3,0
		c1.2,0,6-5.7,3.9-14.1c0.3-0.1,0.6-0.1,0.9-0.2c3.1-0.6,6.3-1.3,9.1-1.8c0.5-0.1,1.1-0.1,1.6-0.2c0.6-0.1,1.2-0.2,1.7-0.4
		c1.1-0.5,1.8-1.6,1.3-3.8c-0.2-1.2-0.8-2.6-1.6-4c0.5-1,0.9-2.4,0.8-4.1c-0.1-2.1-1-4.9-2.8-5.7c0.1-1.4,0-2.8-0.4-4.1l6.9-1.8
		c1.4,3.5,2.2,7.2,2.2,11.2c0,16.7-13.6,30.3-30.3,30.3c-4.2,0-8.3-0.9-11.9-2.5c1-0.5,1.8-0.7,2.1-0.8c0.6-0.2,0.7-0.9,0.7-0.9
		s1.3,0.1,1.6-1.6C259.4,342.6,258.8,340.4,257.4,339.3 M245.6,316.1c-0.1,0.1-0.2,0.2-0.3,0.2c-0.4,0.3-0.7,0.6-1,0.9l-7.2-4.3
		c0.7-3.2,1.9-6.1,3.5-8.8c1.8,2.3,3.7,4.4,5.3,6.2c1.3,1.4,2.5,2.6,3.5,3.6c-0.9,0.4-1.8,0.8-2.8,1.5l-6.7-4.5L245.6,316.1z
		 M236.3,317.9c0.1-1.6,0.3-3.2,0.6-4.7l6.2,5.1c-0.8,0.8-1.4,1.6-1.9,2.4C239.7,319.9,238,318.9,236.3,317.9 M239.8,321.3
		c-0.9,0.2-2.1,0.5-3.3,1.2c-0.1-0.9-0.1-1.9-0.1-2.9c0-0.1,0-0.2,0-0.2C237.5,320.1,238.6,320.7,239.8,321.3 M241.5,302.7
		c0.7-1.1,1.5-2.1,2.4-3.1c1.3,0.1,4,0.6,7.4,1.9c-0.1,2.1-0.1,4.5-0.2,7.3c0,1.3-0.1,2.5-0.3,3.8l0,0.3l-0.2-0.2
		C248.7,310.9,245,307.2,241.5,302.7 M247.8,298.9c0-0.2,0.1-0.4,0.1-0.5c0-0.2,0.1-0.3,0.1-0.5c0.1-0.4,0.3-0.7,0.5-0.9
		c1.2,0.5,2.6,1.1,4.1,1.9c-0.2,0.3-0.4,0.7-0.6,1.1c0,0.1,0,0.1-0.1,0.2c-0.1,0-0.1-0.1-0.2-0.1C250.3,299.6,249,299.1,247.8,298.9
		 M247.9,295.8c1.4-1.1,2.8-2,4.4-2.9c-0.3,0.7-0.5,1.5-0.6,2.5c-0.1,0.6-0.1,1.2-0.2,1.9C250.1,296.7,248.9,296.2,247.9,295.8
		 M252.6,300.2c0.1-0.4,0.4-0.8,0.6-1c0.1,0.1,0.3,0.2,0.4,0.2c1.3,0.8,2.4,1.6,3.4,2.4c0,0-0.1,0.1-0.1,0.1
		c-0.1,0.2-0.3,0.4-0.5,0.6c-1.1-0.8-2.4-1.5-3.8-2.1C252.6,300.4,252.6,300.3,252.6,300.2 M265.3,295.6c0,0-0.4,0.1-0.9,0.6v0
		c0,0,0,0-0.1,0.1c-0.1,0.1-0.2,0.2-0.3,0.4c0,0.1-0.1,0.1-0.1,0.2c-0.1,0.1-0.1,0.2-0.2,0.3c-0.1,0.2-0.3,0.5-0.4,0.8
		c-0.2,0.5-0.3,1-0.3,1.3l-1.2,0.3c-0.6-4.5-2.4-7.5-4.2-8.7c2.9-0.9,6-1.5,9.2-1.5c9.2,0,17.4,4.1,22.9,10.5l-10.4-4.5l-0.2-0.1
		l-10.2,2.5C266.7,296.2,265.3,295.6,265.3,295.6 M267.7,298l-2.8,0.7c-0.4-0.2-0.7-0.3-1-0.4c0.1-0.3,0.3-0.7,0.6-1.2
		c0.2-0.3,0.5-0.5,0.7-0.6l0.1,0l0.1,0.1l0.4,0.3c0.3,0.2,0.8,0.5,1.3,0.8C267.3,297.7,267.5,297.8,267.7,298 M260.4,299.8l-2.4,0.6
		l0.4,1.5c-1.2-1-2.6-2.1-4.4-3.2c-0.3-0.2-0.5-0.3-0.8-0.4c0.1-0.7,0.1-1.3,0.2-1.8c0.4-2.7,1.1-3.5,2.1-3.9
		C256.4,292.3,259.4,294.1,260.4,299.8 M259.7,304.2c0.6,0.6,1.1,1.2,1.5,1.6c-0.1,0.1-0.2,0.2-0.3,0.3c-0.1,0.1-0.1,0.1-0.2,0.2
		c-0.4-0.5-1.1-1.2-2-1.9c-0.5-0.4-1.1-0.9-1.7-1.3c0.2-0.4,0.4-0.6,0.6-0.8C258.4,302.9,259.1,303.6,259.7,304.2 M259.7,303l1,0.5
		c0,0.2,0,0.3,0,0.5C260.4,303.7,260.1,303.4,259.7,303 M263.4,309.5c0-0.2,0-0.4,0-0.5c-0.3-0.2-0.4-0.6-0.4-1
		c0-0.6,0.3-1.1,0.7-1.2c0-1.2,0-2.4,0.1-3c0.2-1.1,7-1.7,11.7-2c0,0,0,0,0,0c0,0.2,0,0.4,0.1,0.5c-5.4,0.3-10.9,1-11.2,1.6
		c-0.1,0.5-0.1,1.8-0.1,2.9c0.4,0.2,0.6,0.6,0.6,1.2c0,0.4-0.2,0.8-0.4,1h0c-0.4,1.2,0.5,8.9,0.8,9.2c0,0-1.7,0.2-2.1,0l0.1-2.8
		l-0.5,2.8l-0.6-0.3C262.7,317.5,263.3,311.5,263.4,309.5L263.4,309.5C263.4,309.5,263.4,309.5,263.4,309.5 M272.8,312
		c-1.7,0.1-3,1.4-3,2.9c0.1,1.5,1.5,2.7,3.2,2.7c1.4-0.1,2.5-0.9,2.9-2.1c0.7,1.4,1.4,2.8,1.9,4c0,0,0,0,0,0c-0.6,0-1.3-0.1-2.2-0.2
		c-2-0.3-4.6-0.9-7-2.1c-1.4-0.7-2.4-1.5-3.1-2.2c-0.2-1.8-0.4-4-0.4-5.2v0c0,0,0-0.1,0-0.1c0.3-0.2,0.7-0.3,1.2-0.5
		c0.6-0.3,1.5-0.5,2.7-0.6c1.8,0.4,3.4,1.7,4.7,3.4C273.4,312.1,273.1,312,272.8,312 M273.7,314.8c0,0.4-0.3,0.7-0.7,0.7
		c-0.4,0-0.8-0.3-0.8-0.7c0-0.4,0.3-0.7,0.8-0.7C273.3,314.1,273.7,314.4,273.7,314.8 M265.7,307.2l-0.4-0.3
		c-0.1-0.2-0.2-0.4-0.4-0.5c0-0.3,0-0.6,0-0.8l0.9,0.5c0.1,0.3,0.2,0.6,0.3,1C266,307.1,265.9,307.1,265.7,307.2 M262.9,305.2
		l-0.2-0.2c0,0-0.4,0.1-0.8,0.3c-0.1-0.1-0.2-0.2-0.3-0.4c0.2-0.3,0.3-0.6,0.5-0.8l0.9,0.4C263,304.8,262.9,305,262.9,305.2
		 M261.8,306.7c0.3-0.3,0.7-0.5,1-0.6l0.1-0.1l0,0c0,0.1,0,0.2,0,0.4c-0.4,0.4-0.7,0.9-0.7,1.6c0,0.5,0.2,1,0.4,1.3v0
		c-0.1,0-0.1,0.1-0.2,0.1c-0.2,0.1-0.5,0.3-0.8,0.5l-0.9-2.2l0.1-0.1c0.1-0.1,0.1-0.2,0.2-0.3c0,0,0,0,0.1-0.1
		C261.3,307.1,261.5,306.9,261.8,306.7 M252.8,309.6c0.1-2.9,0.1-5.3,0.2-7.4c3.2,1.6,5.6,3.7,6.8,4.9c-0.2,0.2-0.3,0.4-0.3,0.4
		c0,0-0.1,0.3,0,0.7h0l0.8,2.5c-0.6,0.4-1.2,0.9-1.8,1.4c-0.6,0.5-1.1,1-1.7,1.6c-1.1-0.5-2.6-0.8-4.3-0.6
		C252.7,312,252.8,310.8,252.8,309.6 M262.1,311.8c0,0.4,0,0.7,0,0.7s0,0.2,0.2,0.6c-0.2,1.9-0.5,3.7-0.7,4.2l-0.9,0.7l2.1,0.8
		c0.1,0,0.8,0.2,1,0.2c0.7,0,1.4-0.1,1.5-0.1l1.3-0.1l-0.7-1c0-0.2-0.1-0.5-0.2-0.9c0.5,0.4,1.1,0.7,1.8,1.1
		c4.8,2.5,10.1,2.5,10.6,2.4c0.3,0.7,0.5,1.3,0.6,1.8l1.3-3.7l0-0.1l0.8-2.4c4.9,2.9,9.2,8.5,10,12.3c0.3,1.7-0.2,1.9-0.5,2.1
		c-0.3,0.1-0.7,0.2-1.3,0.3c-0.6,0.1-1.2,0.1-1.7,0.2c-2.9,0.5-6,1.2-9.2,1.8c-3.1,0.6-6.1,1.1-8.9,1.2c-6.2,0.2-13.9-1.8-14.2-10.6
		C254.8,317.9,259,313.9,262.1,311.8 M278.2,312.1l0.9,0.4l1-0.3l0,0.1l-1.3,0.9C278.6,312.8,278.4,312.4,278.2,312.1 M286.9,316.8
		c0.2-0.1,0.4-0.2,0.6-0.2c0.4,0,0.8,0.2,1.2,0.6c0.7,0.7,1.2,1.9,1.2,3.6c0,0.9-0.1,1.7-0.3,2.4c-0.6-1-1.4-2.1-2.3-3
		c0.5-0.4,0.8-1,0.7-1.6C288,317.8,287.6,317.2,286.9,316.8 M287.4,314.1c-0.2,0-0.3,0-0.5,0c-0.9,0-1.6,0.6-2.1,1.2l-0.5-4.1
		l-1.4,5c-0.6-0.4-1.2-0.8-1.8-1.2l1.1-3.2l4.8-1.3C287.4,311.6,287.5,312.9,287.4,314.1 M286.3,318.6c0,0.1,0,0.2-0.1,0.3
		c-0.1-0.1-0.3-0.3-0.4-0.4c0-0.1,0.1-0.2,0.1-0.4C286.2,318.2,286.3,318.4,286.3,318.6 M272,344.4c0,0-0.1,0.8-1,2
		c-0.7,1-1.4,1.4-1.5,1.4c-0.3,0.1-0.6,0.1-0.7,0c-0.7-0.4-1.4-0.7-2-0.9c-0.5-0.2-0.8-0.3-1-0.3l-0.1-0.2c0-0.4,0.1-0.8,0.2-1.2
		c0.4-1,1.8-0.5,1.9,0.4c0.5-0.4,0.5-1.3-0.2-1.8c-0.7-0.5-2-0.4-2.5,0.6c-0.2,0.4-0.3,0.9-0.3,1.4h-0.2c0,0-0.1-0.1-0.1-0.3
		c-0.3-1.1,0.3-2.5,1-3c0.1-0.1,0.3-0.1,0.4-0.2c0.2-0.1,0.5-0.2,0.8-0.3c0.6-0.2,1.3-0.5,2-0.8c1.5-0.7,3.1-1.9,3.6-4.1
		c0.1-0.6,0.2-1.3,0.2-2c1.2-0.2,2.4-0.3,3.6-0.6c1,4,0.3,7.2-0.6,9.3c-0.5,1.1-1.1,1.9-1.5,2.5c-0.2,0.3-0.4,0.5-0.6,0.6
		c-0.1,0.1-0.1,0.1-0.2,0.2c-0.4,0-0.9,0-1.4,0C272.8,345.9,272,344.4,272,344.4 M279.1,301.2c4.2,0.1,3.1,2.2-0.5,1.7
		C275.7,302.6,274.9,301.1,279.1,301.2 M266.6,287c11.4,0,21.4,5.8,27.2,14.7l-2.7-1.2c-5.7-7.3-14.6-12-24.5-12
		c-3.6,0-7.1,0.6-10.3,1.8c-0.5-0.1-1-0.1-1.5,0.1c-0.8,0.3-1.4,0.7-1.9,1.4c-2.1,1-4.1,2.3-5.9,3.8c-0.7-0.2-1.3-0.4-1.8-0.5
		C250.9,290,258.4,287,266.6,287 M244,296.6c0.1-0.4,0.4-0.7,0.5-0.9l0.1-0.1l0.2,0l0.5,0.1c0.4,0.1,1,0.3,1.6,0.5
		c0.3,0.1,0.7,0.2,1.1,0.4c-0.2,0.3-0.3,0.6-0.5,1c-0.1,0.2-0.1,0.4-0.2,0.5c0,0.2-0.1,0.3-0.1,0.5c-1.6-0.4-2.8-0.5-3.5-0.6
		C243.7,297.7,243.8,297.2,244,296.6 M234,319.6c0-8.7,3.4-16.6,9-22.5c-0.1,0.3-0.1,0.5-0.1,0.9c-0.1,0.7,0,1.3,0.1,1.5
		c-4.6,5.4-7.4,12.4-7.4,20.1c0,6.4,2,12.3,5.3,17.3c0.1,1.3,0.4,2.4,0.7,3.5C236.8,334.8,234,327.5,234,319.6 M251,346.8
		c-0.1-0.1-0.2-0.1-0.2-0.1l-0.4-0.3c0,0-0.1,0-0.2,0c-0.3-0.3-0.6-0.6-1-1c-1.1-1.4-1.3-2.4-1.3-2.4s-0.8,2,0.4,3.6
		c-0.4,0-0.9,0-1.3,0.1c-0.1-0.1-0.2-0.1-0.3-0.2c-0.2-0.2-0.4-0.4-0.7-0.8c-0.6-0.7-1.4-1.7-2-3c-1.4-2.7-2.5-6.7-1.4-12
		c1.1-5.4,5.2-7.9,8.3-9.1c0.1-0.5,0.1-0.9,0.2-1.4c-3.3,1.1-7.7,3.4-9.6,8.5c-0.5-3,0.2-6.7,4.9-10.4c4-3.1,7-3.1,8.8-2.6
		c-1.5,2.1-2.5,4.7-2.4,7.8c0.2,7.1,4.7,10.2,9.6,11.4c-0.9,0.7-2,1.3-3.3,1.9c-1.7,0.8-3.2,1.2-4.6,1.5c-2.2-0.6-5.1-1.6-6-4.7
		c-0.8-2.8-0.2-6.5,2.4-8.1c-0.1-0.4-0.1-0.9-0.1-1.3c-3.7,1.9-4.4,6.6-3.5,9.7c0.8,2.7,2.9,4.1,4.7,4.9c0.9,0.4,1.8,0.6,2.6,0.8
		c0.4,0.1,0.7,0.2,1,0.3c0.2,0.1,0.4,0.1,0.6,0.2c1,0.5,1.7,2.3,1.5,3.7c0,0.3-0.1,0.4-0.1,0.4l-0.3,0c0-0.5-0.2-1.1-0.5-1.7
		c-0.7-1.1-2.3-1.3-3.2-0.5c-0.7,0.6-0.7,1.7-0.1,2.2c0.1-1.1,1.7-1.9,2.3-0.7c0.2,0.5,0.3,1,0.3,1.6l0,0.2
		c-0.2,0.1-0.7,0.2-1.2,0.5c-0.7,0.3-1.6,0.7-2.4,1.3c-0.3,0.2-0.6,0.2-1.1,0.1C251.3,347,251.2,346.9,251,346.8 M266.6,352.3
		c-5.3,0-10.3-1.3-14.8-3.6c0.5,0,1-0.1,1.5-0.4c0.2-0.1,0.4-0.2,0.5-0.3c3.9,1.8,8.2,2.8,12.8,2.8c17.2,0,31.1-14,31.1-31.1
		c0-4-0.8-7.9-2.2-11.4l1.5-0.4c1.4,3.7,2.2,7.6,2.2,11.8C299.2,337.6,284.6,352.3,266.6,352.3"/>
	<path d="M97.3,342.9c-5,2.8-9.5,4-14.4,3.9c-11.4-0.1-17.1-12.9-17.1-24.5v-24.5c0,0-0.2-2.7-0.7-4.3c-0.3-0.9-0.9-2.3-0.9-2.3
		h11.7c0,0-0.5,1-0.7,1.6c-0.6,1.8-0.9,5.1-0.9,5.1v27.1c0,10.6,6.8,15.5,12.2,15.6c6.9,0,13.6-4.8,13.6-14v-28.7c0,0-0.2-3-0.8-4.8
		c-0.3-0.8-0.8-1.9-0.8-1.9h11.7c0,0-0.6,1-0.9,1.6c-0.8,1.8-0.7,5-0.7,5v41.8c0,0,0.4,2.9,0.9,4.7c0.3,0.8,0.7,2,0.7,2H98.6
		c0,0,0.7-1.2,1-2.1c0.3-1,0.6-2.8,0.6-2.8L97.3,342.9z"/>
	<path d="M157.4,346.3l-27-36.3v29.6c0,0,0.3,3,0.9,4.8c0.2,0.7,0.7,1.9,0.7,1.9h-11.7c0,0,0.6-1.2,0.9-2c0.6-1.7,0.7-4.7,0.7-4.7
		v-41.8c0,0-1.8-2.2-3-3.4c-1.5-1.4-4.3-3.2-4.3-3.2l12.4,0l29.6,40v-33.3c0,0-0.2-2.5-0.6-4c-0.3-1.1-1-2.7-1-2.7h11.7
		c0,0-0.7,1.3-0.9,2.1c-0.5,1.7-0.7,4.6-0.7,4.6v41.8c0,0,0.3,2.6,0.7,4.2c0.3,1,0.9,2.5,0.9,2.5H157.4z"/>
	<path d="M196.7,319.9v19.7c0,0,0.2,2.7,0.7,4.4c0.3,0.8,0.9,2.2,0.9,2.2h-11.7c0,0,0.7-1.4,1-2.2c0.5-1.7,0.6-4.4,0.6-4.4v-18.1
		l-13-23.7c0,0-1.7-2.8-3.1-4.4c-0.7-0.9-2.2-2.2-2.2-2.2h13c0,0-0.6,1.2-0.7,2c-0.3,1.9,1.5,4.7,1.5,4.7l8.5,14.8l8.1-14.8
		c0,0,0.7-1.7,0.9-3.3c0.2-1.1-0.3-3.3-0.3-3.3h13.3c0,0-1.4,1.1-2.1,1.7c-1.6,1.7-3.2,4.9-3.2,4.9L196.7,319.9z"/>
	<path d="M381.6,322.7v16.9c0,0,0.2,2.9,0.8,4.6c0.2,0.8,0.8,2.1,0.8,2.1h-11.7c0,0,0.6-1.2,0.8-1.9c0.6-1.7,0.8-4.8,0.8-4.8v-41.8
		c0,0-0.2-3.2-0.9-5.1c-0.2-0.6-0.7-1.5-0.7-1.5l12.7,0c8.8,0,19.5,6.2,19.7,14.9c0.1,5.1-1,9.3-8,14l-2.7,1.8l0.9,2.1
		c0.6,1.4,3,4.2,6,7.8c3.6,4.4,5.7,7,10.1,10.6l4.9,3.9h-7.2l-2.8-1.6c-4.2-2.4-7.5-5.7-11.7-9.7c-4-3.9-7.9-9-10.5-13L381.6,322.7z
		 M383.5,319.8c6.7-1.5,13.2-6.6,12.1-13c-1.4-8.1-8.4-9.7-12.4-10.9l-1.5-0.5v24.7L383.5,319.8z"/>
	<path d="M434.5,346.5c-15.7-1-25-12.7-25.4-27.9c-0.4-15.1,11.3-27.7,26.1-28c14.9-0.3,26.7,11.2,27.2,27.2
		C463.1,335.6,449.2,347.4,434.5,346.5 M440.4,340.2c8.7-0.8,15-12.1,14.1-22.2c-1.3-14.2-13-22-21.8-21.5
		c-10.2,0.5-16.4,11.4-15.6,21.8C418.2,332.5,429,341.3,440.4,340.2"/>
	<path d="M491.5,346.5c-15.7-1-25-12.7-25.4-27.9c-0.4-15.1,11.3-27.7,26.1-28c14.9-0.3,26.7,11.2,27.2,27.2
		C520.1,335.6,506.2,347.4,491.5,346.5 M497.5,340.2c8.7-0.8,15-12.1,14.1-22.2c-1.3-14.2-13-22-21.8-21.5
		c-10.2,0.5-16.4,11.4-15.6,21.8C475.2,332.5,486,341.3,497.5,340.2"/>
	<path d="M552,329.4l-17.8-22.2v32.5c0,0,0.1,3.2,0.8,5c0.3,0.7,0.8,1.7,0.8,1.7H524c0,0,0.7-1.2,1-2c0.6-1.7,0.6-4.7,0.6-4.7v-41.8
		c0,0-1.8-3-3.3-4.7c-0.8-0.8-2.2-2-2.2-2H532l20,26.2l20-26.2h11.6c0,0-1.2,1.1-1.8,1.8c-1.5,1.7-3.4,4.8-3.4,4.8v41.8
		c0,0,0.3,2.7,0.8,4.4c0.3,0.9,0.8,2.2,0.8,2.2h-11.7c0,0,0.7-1.4,1-2.3c0.5-1.6,0.6-4.3,0.6-4.3v-32.6L552,329.4z"/>
	<path d="M613.6,299.8c-2.2-0.8-3.8-1.2-6.1-1.8c-2.7-0.8-4.4-0.9-7.2-1.1l-2.3-0.2v19c3-0.3,4.7-0.2,7.7-0.4c3.7-0.2,6.1,0,9.9,0.3
		l-4.7,7.7c-2.5-1-4-1.6-6.7-2.1c-2.3-0.5-3.8-0.7-6.2-0.7v20.1h2.5c3,0,4.8-0.5,7.8-0.9c5.2-0.8,7.9-1.7,12.6-3.4l-4.2,9.8h-28.8
		c0,0,0.5-1,0.8-1.6c0.7-1.8,0.8-5.1,0.8-5.1v-41.8c0,0,0.2-3.1-0.5-4.8c-0.3-0.7-1-1.8-1-1.8h29.9L613.6,299.8z"/>
	<path d="M55.8,302.3c0,0-6-5.2-13.4-5c-6.6,0.1-12.1,3.4-12.1,7.7c-0.1,5.1,5.8,7.1,12.1,9.8c10.8,4.7,17.6,9.7,16.7,18
		c-1,8.7-8.4,13.7-22.3,13.4c-6.4-0.1-11.9-0.6-16-3.9v-11.1l4.2,4.8c3.6,2.4,6.8,3.9,12.1,4c7.2,0.1,13.2-3.7,12.3-8.1
		c-1.2-5.7-8-7.1-15.2-10.2c-9-4-12.1-6.4-13-14.4c-0.9-8.4,7.5-17.1,21.8-17c6.4,0,11.5,0.7,12.7,2.4V302.3z"/>
	<path d="M357.8,315.2l-2.5,1.8l3.1,1.9c5.5,3.3,9.2,8.1,9.6,13.5c0.8,9.5-13.2,13.8-26.1,13.8h-17.6c0,0,0.8-1.2,1.2-1.9
		c0.8-1.8,2.5-4.9,2.5-4.9v-41.8c0,0-1.9-2.6-2.5-4.2c-0.3-0.9-1.2-2.4-1.2-2.4h18.3c10.9,0,22.4,6.1,22.1,14.5
		C364.6,309.9,361.6,312.5,357.8,315.2 M343.4,315.7c5.3-0.9,12.9-5.5,12.6-9.8c-0.5-8.3-10.7-9.2-16.4-9.5l-1.6-0.1v20.3
		L343.4,315.7z M343.4,341.2c3.5-0.1,15.4-2.2,14.6-10c-0.6-5.9-8.1-10.7-16.2-12.5l-3.8-0.8v23.5L343.4,341.2z"/>
</g>
</svg>
